<svg
  width="247"
  height="241"
  viewBox="0 0 247 241"
  fill="none"
  xmlns="http://www.w3.org/2000/svg"
>
  <g clip-path="url(#clip0_20_749)">
    <path
      d="M156.806 54.2002H90.25C88.7333 54.202 87.2793 54.8051 86.2068 55.8771C85.1343 56.9491 84.531 58.4025 84.5292 59.9185V207.776L83.7664 208.009L67.4392 213.007C66.6654 213.243 65.8296 213.162 65.1153 212.782C64.401 212.403 63.8665 211.756 63.6293 210.982L15.0633 52.4122C14.827 51.6388 14.9075 50.8031 15.2873 50.089C15.667 49.3749 16.3149 48.8407 17.0885 48.6038L42.2487 40.9031L115.189 18.5862L140.349 10.8855C140.732 10.7677 141.134 10.7265 141.533 10.7644C141.932 10.8022 142.319 10.9182 142.673 11.1059C143.027 11.2936 143.34 11.5492 143.595 11.858C143.85 12.1669 144.042 12.523 144.159 12.906L156.573 53.4377L156.806 54.2002Z"
      fill="#F2F2F2"
    />
    <path
      d="M171.329 53.4377L156.367 4.58766C156.118 3.77373 155.711 3.0168 155.17 2.36013C154.628 1.70346 153.962 1.15993 153.21 0.760577C152.458 0.361228 151.635 0.113892 150.787 0.0327104C149.94 -0.0484709 149.085 0.0380939 148.27 0.287449L112.897 11.1104L39.9605 33.4311L4.58681 44.2579C2.94354 44.7622 1.5676 45.8977 0.761023 47.4151C-0.0455567 48.9325 -0.216886 50.7078 0.284651 52.3513L51.421 219.301C51.8285 220.627 52.6506 221.789 53.7667 222.614C54.8828 223.439 56.2341 223.886 57.6225 223.887C58.2651 223.887 58.904 223.791 59.5179 223.601L83.7665 216.182L84.5293 215.946V215.149L83.7665 215.382L59.2929 222.873C57.8424 223.315 56.2758 223.164 54.9366 222.453C53.5975 221.742 52.5952 220.529 52.1495 219.08L1.01707 52.1263C0.796281 51.4085 0.71933 50.6541 0.790621 49.9064C0.861912 49.1588 1.08004 48.4326 1.43252 47.7693C1.78501 47.106 2.26493 46.5188 2.84479 46.0412C3.42465 45.5636 4.09306 45.205 4.81176 44.986L40.1854 34.1592L113.122 11.8424L148.496 1.01559C149.041 0.849305 149.607 0.764516 150.177 0.763985C151.401 0.766731 152.591 1.1609 153.573 1.88876C154.556 2.61662 155.28 3.63992 155.639 4.80878L170.532 53.4378L170.769 54.2002H171.562L171.329 53.4377Z"
      fill="#3F3D56"
    />
    <path
      d="M46.7889 48.7284C46.0538 48.7279 45.3383 48.4919 44.7472 48.0551C44.1561 47.6182 43.7206 47.0036 43.5047 46.3012L38.5923 30.2625C38.4603 29.8316 38.4144 29.379 38.4575 28.9305C38.5005 28.482 38.6314 28.0463 38.8429 27.6484C39.0544 27.2505 39.3422 26.8981 39.69 26.6114C40.0377 26.3247 40.4385 26.1093 40.8696 25.9774L107.97 5.44324C108.841 5.17773 109.781 5.26828 110.585 5.69502C111.389 6.12176 111.99 6.84983 112.257 7.71941L117.17 23.7584C117.435 24.6285 117.345 25.5683 116.918 26.3717C116.491 27.175 115.763 27.7763 114.893 28.0436L47.7917 48.5778C47.4668 48.6775 47.1288 48.7282 46.7889 48.7284Z"
      fill="#6C63FF"
    />
    <path
      d="M72.5221 17.1379C76.7348 17.1379 80.1498 13.7243 80.1498 9.5134C80.1498 5.30251 76.7348 1.88892 72.5221 1.88892C68.3094 1.88892 64.8943 5.30251 64.8943 9.5134C64.8943 13.7243 68.3094 17.1379 72.5221 17.1379Z"
      fill="#6C63FF"
    />
    <path
      d="M72.5221 14.3414C75.1897 14.3414 77.3522 12.1798 77.3522 9.51336C77.3522 6.8469 75.1897 4.6853 72.5221 4.6853C69.8545 4.6853 67.6919 6.8469 67.6919 9.51336C67.6919 12.1798 69.8545 14.3414 72.5221 14.3414Z"
      fill="white"
    />
    <path
      d="M229.838 221.939H100.929C100.069 221.938 99.2454 221.596 98.6377 220.989C98.03 220.381 97.6881 219.558 97.6871 218.698V64.3027C97.6881 63.4435 98.0299 62.6199 98.6377 62.0124C99.2454 61.4049 100.069 61.0632 100.929 61.0623H229.838C230.697 61.0632 231.521 61.405 232.129 62.0124C232.737 62.6199 233.078 63.4436 233.079 64.3027V218.698C233.078 219.558 232.737 220.381 232.129 220.989C231.521 221.596 230.697 221.938 229.838 221.939Z"
      fill="#E6E6E6"
    />
    <path
      d="M170.532 53.4377H90.25C88.5312 53.4402 86.8835 54.1238 85.6681 55.3386C84.4527 56.5535 83.7688 58.2005 83.7664 59.9186V215.382L84.5292 215.149V59.9186C84.531 58.4025 85.1343 56.9491 86.2068 55.8771C87.2793 54.8051 88.7333 54.202 90.25 54.2002H170.768L170.532 53.4377ZM240.516 53.4377H90.25C88.5312 53.4402 86.8835 54.1238 85.6681 55.3386C84.4527 56.5535 83.7688 58.2005 83.7664 59.9186V234.519C83.7688 236.237 84.4527 237.884 85.6681 239.099C86.8835 240.314 88.5312 240.998 90.25 241H240.516C242.235 240.998 243.883 240.314 245.098 239.099C246.314 237.884 246.998 236.237 247 234.519V59.9186C246.998 58.2005 246.314 56.5535 245.098 55.3386C243.883 54.1238 242.235 53.4402 240.516 53.4377ZM246.237 234.519C246.235 236.035 245.632 237.489 244.56 238.561C243.487 239.633 242.033 240.236 240.516 240.238H90.25C88.7333 240.236 87.2793 239.633 86.2068 238.561C85.1343 237.489 84.531 236.035 84.5292 234.519V59.9186C84.531 58.4025 85.1343 56.9491 86.2068 55.8771C87.2793 54.8051 88.7333 54.202 90.25 54.2002H240.516C242.033 54.202 243.487 54.8051 244.56 55.8771C245.632 56.9491 246.235 58.4025 246.237 59.9186V234.519Z"
      fill="#3F3D56"
    />
    <path
      d="M200.471 70.2116H130.296C129.386 70.2106 128.513 69.8488 127.87 69.2055C127.226 68.5623 126.864 67.6902 126.863 66.7806V50.0067C126.864 49.0971 127.226 48.225 127.87 47.5817C128.513 46.9385 129.386 46.5767 130.296 46.5757H200.471C201.381 46.5767 202.253 46.9385 202.897 47.5817C203.54 48.225 203.902 49.0971 203.903 50.0067V66.7806C203.902 67.6902 203.54 68.5623 202.897 69.2055C202.253 69.8488 201.381 70.2106 200.471 70.2116Z"
      fill="#6C63FF"
    />
    <path
      d="M165.383 47.7192C169.596 47.7192 173.011 44.3056 173.011 40.0947C173.011 35.8838 169.596 32.4702 165.383 32.4702C161.171 32.4702 157.755 35.8838 157.755 40.0947C157.755 44.3056 161.171 47.7192 165.383 47.7192Z"
      fill="#6C63FF"
    />
    <path
      d="M165.383 44.7387C167.949 44.7387 170.029 42.6595 170.029 40.0947C170.029 37.5299 167.949 35.4507 165.383 35.4507C162.817 35.4507 160.737 37.5299 160.737 40.0947C160.737 42.6595 162.817 44.7387 165.383 44.7387Z"
      fill="white"
    />
  </g>
  <defs>
    <clipPath id="clip0_20_749">
      <rect width="247" height="241" fill="white" />
    </clipPath>
  </defs>
</svg>
