<svg
  width="164"
  height="164"
  viewBox="0 0 164 164"
  fill="none"
  xmlns="http://www.w3.org/2000/svg"
>
  <circle cx="80.325" cy="83.675" r="80.325" fill="#F5F6FF" />
  <mask
    id="mask0_2_289"
    style="mask-type: alpha"
    maskUnits="userSpaceOnUse"
    x="0"
    y="3"
    width="161"
    height="161"
  >
    <circle cx="80.325" cy="83.675" r="80.325" fill="#F5F6FF" />
  </mask>
  <g mask="url(#mask0_2_289)">
    <rect x="27" y="38.45" width="106.65" height="152.55" rx="8" fill="white" />
    <ellipse cx="49.95" cy="61.3999" rx="9.45" ry="9.45" fill="#00097A" />
    <rect
      x="40.5"
      y="81.65"
      width="66.15"
      height="6.75"
      rx="2.5"
      fill="#B3B8FF"
    />
    <rect
      x="40.5"
      y="93.7999"
      width="66.15"
      height="6.75"
      rx="2.5"
      fill="#DBDEFF"
    />
    <rect
      x="40.5"
      y="105.95"
      width="39.15"
      height="6.75"
      rx="2.5"
      fill="#DBDEFF"
    />
  </g>
  <path
    d="M140.4 46.2C152.882 46.2 163 36.0816 163 23.6C163 11.1184 152.882 1 140.4 1C127.918 1 117.8 11.1184 117.8 23.6C117.8 36.0816 127.918 46.2 140.4 46.2Z"
    fill="#5C68FF"
    stroke="white"
    stroke-width="2"
  />
  <path
    d="M134.841 19.1167C134.839 19.1821 134.849 19.2474 134.873 19.3085C134.896 19.3696 134.932 19.4253 134.977 19.4722C135.023 19.519 135.078 19.556 135.138 19.5809C135.199 19.6058 135.264 19.618 135.329 19.6169H137C137.279 19.6169 137.502 19.388 137.539 19.1106C137.721 17.7822 138.632 16.8143 140.256 16.8143C141.645 16.8143 142.917 17.5088 142.917 19.1795C142.917 20.4653 142.16 21.0566 140.963 21.9557C139.6 22.946 138.521 24.1022 138.598 25.9794L138.604 26.4188C138.606 26.5517 138.66 26.6784 138.755 26.7716C138.85 26.8648 138.977 26.917 139.11 26.917H140.752C140.887 26.917 141.015 26.8637 141.11 26.7687C141.205 26.6738 141.259 26.545 141.259 26.4107V26.1981C141.259 24.7442 141.811 24.3209 143.304 23.189C144.537 22.2514 145.823 21.2105 145.823 19.0256C145.823 15.9658 143.239 14.4875 140.41 14.4875C137.844 14.4875 135.034 15.6823 134.841 19.1167V19.1167ZM137.994 30.7868C137.994 31.8661 138.855 32.6639 140.039 32.6639C141.273 32.6639 142.121 31.8661 142.121 30.7868C142.121 29.669 141.271 28.8833 140.037 28.8833C138.855 28.8833 137.994 29.669 137.994 30.7868Z"
    fill="white"
  />
</svg>
