<svg width="18" height="22" viewBox="0 0 18 22" fill="none" xmlns="http://www.w3.org/2000/svg">
    <path d="M9.01997 1.90991C5.70997 1.90991 3.01997 4.59991 3.01997 7.90991V10.7999C3.01997 11.4099 2.75997 12.3399 2.44997 12.8599L1.29997 14.7699C0.589966 15.9499 1.07997 17.2599 2.37997 17.6999C6.68997 19.1399 11.34 19.1399 15.65 17.6999C16.86 17.2999 17.39 15.8699 16.73 14.7699L15.58 12.8599C15.28 12.3399 15.02 11.4099 15.02 10.7999V7.90991C15.02 4.60991 12.32 1.90991 9.01997 1.90991Z" stroke="#292D32" stroke-width="1.5" stroke-miterlimit="10" stroke-linecap="round"/>
    <path d="M10.8699 2.19994C10.5599 2.10994 10.2399 2.03994 9.90992 1.99994C8.94992 1.87994 8.02992 1.94994 7.16992 2.19994C7.45992 1.45994 8.17992 0.939941 9.01992 0.939941C9.85992 0.939941 10.5799 1.45994 10.8699 2.19994Z" stroke="#292D32" stroke-width="1.5" stroke-miterlimit="10" stroke-linecap="round" stroke-linejoin="round"/>
    <path d="M12.02 18.0601C12.02 19.7101 10.67 21.0601 9.02002 21.0601C8.20002 21.0601 7.44002 20.7201 6.90002 20.1801C6.36002 19.6401 6.02002 18.8801 6.02002 18.0601" stroke="#292D32" stroke-width="1.5" stroke-miterlimit="10"/>
</svg>
