<svg width="40" height="41" viewBox="0 0 40 41" fill="none" xmlns="http://www.w3.org/2000/svg">
    <mask id="path-1-inside-1_28_65" fill="white">
        <path fill-rule="evenodd" clip-rule="evenodd" d="M10.0737 0C10.6197 0 11.0623 0.442626 11.0623 0.988633V2.84213H28.9371V0.989561C28.9371 0.443554 29.3798 0.000927925 29.9258 0.000927925C30.4718 0.000927925 30.9144 0.443554 30.9144 0.989561V2.84213H34.7273C37.6393 2.84213 40 5.20281 40 8.11484V34.7765C40 37.6886 37.6393 40.0492 34.7273 40.0492H5.27271C2.36067 40.0492 0 37.6886 0 34.7765V8.11483C0 5.2028 2.36067 2.84213 5.27271 2.84213H9.08508V0.988633C9.08508 0.442626 9.5277 0 10.0737 0Z"/>
    </mask>
    <path d="M11.0623 2.84213H8.06234V5.84213H11.0623V2.84213ZM28.9371 2.84213V5.84213H31.9371V2.84213H28.9371ZM30.9144 2.84213H27.9144V5.84213H30.9144V2.84213ZM9.08508 2.84213V5.84213H12.0851V2.84213H9.08508ZM14.0623 0.988633C14.0623 -1.21423 12.2766 -3 10.0737 -3V3C8.96286 3 8.06234 2.09948 8.06234 0.988633H14.0623ZM14.0623 2.84213V0.988633H8.06234V2.84213H14.0623ZM11.0623 5.84213H28.9371V-0.157866H11.0623V5.84213ZM25.9371 0.989561V2.84213H31.9371V0.989561H25.9371ZM29.9258 -2.99907C27.7229 -2.99907 25.9371 -1.2133 25.9371 0.989561H31.9371C31.9371 2.10041 31.0366 3.00093 29.9258 3.00093V-2.99907ZM33.9144 0.989561C33.9144 -1.2133 32.1286 -2.99907 29.9258 -2.99907V3.00093C28.8149 3.00093 27.9144 2.10041 27.9144 0.989561H33.9144ZM33.9144 2.84213V0.989561H27.9144V2.84213H33.9144ZM30.9144 5.84213H34.7273V-0.157866H30.9144V5.84213ZM34.7273 5.84213C35.9825 5.84213 37 6.85966 37 8.11484H43C43 3.54595 39.2962 -0.157866 34.7273 -0.157866V5.84213ZM37 8.11484V34.7765H43V8.11484H37ZM37 34.7765C37 36.0317 35.9825 37.0492 34.7273 37.0492V43.0492C39.2962 43.0492 43 39.3454 43 34.7765H37ZM34.7273 37.0492H5.27271V43.0492H34.7273V37.0492ZM5.27271 37.0492C4.01752 37.0492 3 36.0317 3 34.7765H-3C-3 39.3454 0.703817 43.0492 5.27271 43.0492V37.0492ZM3 34.7765V8.11483H-3V34.7765H3ZM3 8.11483C3 6.85966 4.01752 5.84213 5.27271 5.84213V-0.157866C0.703823 -0.157866 -3 3.54594 -3 8.11483H3ZM5.27271 5.84213H9.08508V-0.157866H5.27271V5.84213ZM6.08508 0.988633V2.84213H12.0851V0.988633H6.08508ZM10.0737 -3C7.87085 -3 6.08508 -1.21423 6.08508 0.988633H12.0851C12.0851 2.09948 11.1846 3 10.0737 3V-3Z" fill="#A6A6A6" mask="url(#path-1-inside-1_28_65)"/>
    <path fill-rule="evenodd" clip-rule="evenodd" d="M9.5331 13.571C9.5331 13.025 9.97572 12.5824 10.5217 12.5824H29.478C30.024 12.5824 30.4666 13.025 30.4666 13.571C30.4666 14.117 30.024 14.5597 29.478 14.5597H10.5217C9.97572 14.5597 9.5331 14.117 9.5331 13.571ZM12.7026 21.1796C12.7026 22.3048 11.796 23.217 10.6775 23.217C9.55912 23.217 8.65247 22.3048 8.65247 21.1796C8.65247 20.0544 9.55912 19.1423 10.6775 19.1423C11.796 19.1423 12.7026 20.0544 12.7026 21.1796ZM22.0247 21.1805C22.0247 22.3057 21.118 23.2179 19.9996 23.2179C18.8812 23.2179 17.9745 22.3057 17.9745 21.1805C17.9745 20.0553 18.8812 19.1431 19.9996 19.1431C21.118 19.1431 22.0247 20.0553 22.0247 21.1805ZM29.3222 23.2179C30.4406 23.2179 31.3473 22.3057 31.3473 21.1805C31.3473 20.0553 30.4406 19.1431 29.3222 19.1431C28.2038 19.1431 27.2971 20.0553 27.2971 21.1805C27.2971 22.3057 28.2038 23.2179 29.3222 23.2179ZM10.6774 31.3107C11.7958 31.3107 12.7025 30.3986 12.7025 29.2734C12.7025 28.1482 11.7958 27.236 10.6774 27.236C9.559 27.236 8.65234 28.1482 8.65234 29.2734C8.65234 30.3986 9.559 31.3107 10.6774 31.3107ZM20 31.3107C21.1184 31.3107 22.0251 30.3986 22.0251 29.2734C22.0251 28.1482 21.1184 27.236 20 27.236C18.8816 27.236 17.975 28.1482 17.975 29.2734C17.975 30.3986 18.8816 31.3107 20 31.3107ZM31.3476 29.2734C31.3476 30.3986 30.441 31.3107 29.3226 31.3107C28.2041 31.3107 27.2975 30.3986 27.2975 29.2734C27.2975 28.1482 28.2041 27.236 29.3226 27.236C30.441 27.236 31.3476 28.1482 31.3476 29.2734Z" fill="#A6A6A6"/>
</svg>
