<svg width="40" height="37" viewBox="0 0 40 37" fill="none" xmlns="http://www.w3.org/2000/svg">
    <path fill-rule="evenodd" clip-rule="evenodd" d="M0 11.4493C0 9.38382 0 8.3511 0.164656 7.49125C0.87556 3.77886 3.77886 0.87556 7.49125 0.164656C8.35109 0 9.38382 0 11.4493 0C13.5147 0 14.5474 0 15.4073 0.164656C18.0655 0.673686 20.3088 2.30677 21.6296 4.55606C21.8547 4.93944 21.9672 5.13113 22.1216 5.2195C22.276 5.30788 22.4758 5.30788 22.8755 5.30788H24.1585C30.3475 5.30788 33.442 5.30788 35.6985 6.73234C36.8597 7.46531 37.8426 8.4482 38.5755 9.60933C40 11.8659 40 14.9604 40 21.1493C40 27.3383 40 30.4328 38.5755 32.6894C37.8426 33.8505 36.8597 34.8334 35.6985 35.5663C33.442 36.9908 30.3475 36.9908 24.1585 36.9908H15.8415C9.65249 36.9908 6.55801 36.9908 4.30145 35.5663C3.14032 34.8334 2.15743 33.8505 1.42446 32.6894C0 30.4328 0 27.3383 0 21.1493L3.80655e-05 20.6025L0 20.2337V11.4493ZM7.50121 15.9966C7.50121 14.7226 8.53398 13.6899 9.80795 13.6899H30.1924C31.4664 13.6899 32.4991 14.7226 32.4991 15.9966C32.4991 16.5506 32.9483 16.9998 33.5023 16.9998C34.0563 16.9998 34.5055 16.5506 34.5055 15.9966C34.5055 13.6146 32.5744 11.6835 30.1924 11.6835H9.80795C7.42592 11.6835 5.4949 13.6146 5.4949 15.9966C5.4949 16.5506 5.94403 16.9998 6.49806 16.9998C7.05208 16.9998 7.50121 16.5506 7.50121 15.9966Z" fill="#5C68FF"/>
</svg>
