<svg width="44" height="41" viewBox="0 0 44 41" fill="none" xmlns="http://www.w3.org/2000/svg">
    <path d="M2.16466 9.49109L0.691426 9.20896L2.16466 9.49109ZM2.00004 22.602L3.50004 22.6024L3.50004 22.6016L2.00004 22.602ZM3.42446 34.6886L4.69287 33.8879L4.69287 33.8879L3.42446 34.6886ZM6.30145 37.5656L5.50077 38.834L5.50077 38.834L6.30145 37.5656ZM37.6985 37.5656L38.4992 38.834V38.834L37.6985 37.5656ZM40.5755 34.6886L39.3071 33.8879V33.8879L40.5755 34.6886ZM40.5755 11.6091L41.8439 10.8084L40.5755 11.6091ZM37.6985 8.73219L36.8979 10.0006L37.6985 8.73219ZM17.4073 2.16465L17.1252 3.63788L17.4073 2.16465ZM9.49125 2.16465L9.20914 0.69142L9.49125 2.16465ZM23.6736 6.63184L24.9743 5.88467L23.6736 6.63184ZM24.1086 7.22709L23.3572 8.52531L24.1086 7.22709ZM3.5 13.449C3.5 11.3144 3.50675 10.458 3.63789 9.77321L0.691426 9.20896C0.493252 10.2438 0.5 11.4529 0.5 13.449H3.5ZM3.5 22.2332V13.449H0.5V22.2332H3.5ZM3.50004 22.6016C3.5 22.4827 3.5 22.36 3.5 22.2332H0.5C0.5 22.3599 0.5 22.4831 0.500038 22.6025L3.50004 22.6016ZM3.5 23.1489C3.5 22.9638 3.5 22.7817 3.50004 22.6024L0.500038 22.6017C0.5 22.7815 0.5 22.9639 0.5 23.1489H3.5ZM4.69287 33.8879C4.15715 33.0393 3.83808 31.9646 3.671 30.2481C3.50166 28.5083 3.5 26.2731 3.5 23.1489H0.5C0.5 26.2135 0.498341 28.6199 0.685114 30.5387C0.874147 32.4807 1.26731 34.0815 2.15605 35.4893L4.69287 33.8879ZM7.10214 36.2971C6.12978 35.6834 5.30668 34.8603 4.69287 33.8879L2.15605 35.4893C3.00818 36.8392 4.15087 37.9819 5.50077 38.834L7.10214 36.2971ZM17.8415 37.49C14.7172 37.49 12.4819 37.4883 10.7421 37.319C9.02556 37.1519 7.95081 36.8329 7.10214 36.2971L5.50077 38.834C6.90866 39.7227 8.50943 40.1159 10.4515 40.3049C12.3703 40.4917 14.7768 40.49 17.8415 40.49V37.49ZM26.1585 37.49H17.8415V40.49H26.1585V37.49ZM36.8979 36.2971C36.0492 36.8329 34.9744 37.1519 33.2579 37.319C31.5181 37.4883 29.2828 37.49 26.1585 37.49V40.49C29.2232 40.49 31.6297 40.4917 33.5485 40.3049C35.4906 40.1159 37.0913 39.7227 38.4992 38.834L36.8979 36.2971ZM39.3071 33.8879C38.6933 34.8603 37.8702 35.6834 36.8979 36.2971L38.4992 38.834C39.8491 37.9819 40.9918 36.8392 41.8439 35.4893L39.3071 33.8879ZM40.5 23.1489C40.5 26.2731 40.4983 28.5083 40.329 30.2481C40.1619 31.9646 39.8428 33.0393 39.3071 33.8879L41.8439 35.4893C42.7327 34.0815 43.1259 32.4807 43.3149 30.5387C43.5017 28.6199 43.5 26.2135 43.5 23.1489H40.5ZM39.3071 12.4098C39.8428 13.2585 40.1619 14.3332 40.329 16.0497C40.4983 17.7894 40.5 20.0247 40.5 23.1489H43.5C43.5 20.0842 43.5017 17.6779 43.3149 15.7591C43.1259 13.817 42.7327 12.2163 41.8439 10.8084L39.3071 12.4098ZM36.8979 10.0006C37.8702 10.6144 38.6933 11.4375 39.3071 12.4098L41.8439 10.8084C40.9918 9.45854 39.8491 8.31588 38.4992 7.46377L36.8979 10.0006ZM26.1585 8.80776C29.2828 8.80776 31.5181 8.80942 33.2579 8.97876C34.9744 9.14584 36.0492 9.4649 36.8979 10.0006L38.4992 7.46377C37.0913 6.57505 35.4906 6.1819 33.5485 5.99287C31.6297 5.8061 29.2232 5.80776 26.1585 5.80776V8.80776ZM24.7877 8.80776H26.1585V5.80776H24.7877V8.80776ZM17.1252 3.63788C19.3757 4.06883 21.2717 5.4619 22.373 7.379L24.9743 5.88467C23.4465 3.22504 20.8149 1.28992 17.6894 0.69142L17.1252 3.63788ZM13.4493 3.5C15.5839 3.5 16.4403 3.50675 17.1252 3.63788L17.6894 0.69142C16.6545 0.493253 15.4455 0.5 13.4493 0.5V3.5ZM9.77336 3.63788C10.4582 3.50675 11.3146 3.5 13.4493 3.5V0.5C11.453 0.5 10.244 0.493253 9.20914 0.69142L9.77336 3.63788ZM3.63789 9.77321C4.23321 6.66446 6.6645 4.2332 9.77336 3.63788L9.20914 0.69142C4.89323 1.51788 1.51791 4.89311 0.691426 9.20896L3.63789 9.77321ZM24.7877 5.80776C24.6938 5.80776 24.6299 5.80771 24.5766 5.80675C24.5233 5.80578 24.5053 5.80421 24.5057 5.80425C24.5073 5.80439 24.5492 5.80815 24.6133 5.82542C24.683 5.84419 24.7692 5.87629 24.86 5.92887L23.3572 8.52531C23.6869 8.71615 24.0057 8.77049 24.2253 8.79111C24.419 8.8093 24.6361 8.80776 24.7877 8.80776V5.80776ZM22.373 7.379C22.4581 7.5273 22.569 7.72287 22.6815 7.88456C22.8015 8.05706 23.0116 8.3253 23.3572 8.52531L24.86 5.92887C24.9624 5.98814 25.0366 6.05291 25.0843 6.10196C25.128 6.14684 25.1484 6.17741 25.144 6.17115C25.1396 6.16483 25.1249 6.14269 25.0933 6.08969C25.0618 6.03692 25.0254 5.97357 24.9743 5.88467L22.373 7.379Z" fill="#A6A6A6"/>
    <path d="M35.5023 17.9956C35.5023 16.1677 34.0204 14.6858 32.1924 14.6858H11.8079C9.97994 14.6858 8.49805 16.1677 8.49805 17.9956" stroke="#A6A6A6" stroke-width="3" stroke-linecap="round" stroke-linejoin="round"/>
</svg>
