<svg width="41" height="42" viewBox="0 0 41 42" fill="none" xmlns="http://www.w3.org/2000/svg">
    <path d="M0.0834961 36.423V19.5679C0.0834961 17.1445 1.12268 14.8403 2.93212 13.2514L16.4675 1.36601C18.5417 -0.45533 21.6252 -0.455338 23.6993 1.36599L37.2348 13.2514C39.0443 14.8403 40.0835 17.1445 40.0835 19.5679V36.423C40.0835 39.5031 37.6143 42 34.5685 42H29.77C28.2471 42 27.0125 40.7516 27.0125 39.2115V31.6286C27.0125 30.0886 25.778 28.8401 24.255 28.8401H16.3622C14.8393 28.8401 13.6047 30.0886 13.6047 31.6286V39.2115C13.6047 40.7515 12.3701 42 10.8472 42H5.59851C2.55265 42 0.0834961 39.5031 0.0834961 36.423Z" fill="#5C68FF"/>
</svg>
