<svg width="44" height="45" viewBox="0 0 44 45" fill="none" xmlns="http://www.w3.org/2000/svg">
    <path d="M2.0166 40.43V19.4808C2.0166 18.3825 2.5016 17.3402 3.34184 16.6329L20.4182 2.25739C21.3419 1.4798 22.6912 1.4798 23.6149 2.25739L40.6914 16.6329C41.5316 17.3402 42.0166 18.3825 42.0166 19.4808V40.43C42.0166 41.8007 40.9054 42.9119 39.5348 42.9119H30.1865C29.5012 42.9119 28.9456 42.3563 28.9456 41.671V31.5364C28.9456 30.851 28.3901 30.2954 27.7047 30.2954H16.7787C16.0934 30.2954 15.5378 30.851 15.5378 31.5364V41.671C15.5378 42.3563 14.9822 42.9119 14.2969 42.9119H4.49842C3.12775 42.9119 2.0166 41.8007 2.0166 40.43Z" stroke="#A6A6A6" stroke-width="3" stroke-linejoin="round"/>
</svg>
