<svg width="20" height="20" viewBox="0 0 20 20" fill="none" xmlns="http://www.w3.org/2000/svg">
    <path d="M14.8 0H12.2C9 0 7 2 7 5.2V9.25H13.25C13.66 9.25 14 9.59 14 10C14 10.41 13.66 10.75 13.25 10.75H7V14.8C7 18 9 20 12.2 20H14.79C17.99 20 19.99 18 19.99 14.8V5.2C20 2 18 0 14.8 0Z"
          fill="rgb(239,68,68)"/>
    <path d="M2.56141 9.24984L4.63141 7.17984C4.78141 7.02984 4.85141 6.83984 4.85141 6.64984C4.85141 6.45984 4.78141 6.25984 4.63141 6.11984C4.34141 5.82984 3.86141 5.82984 3.57141 6.11984L0.221406 9.46984C-0.0685937 9.75984 -0.0685937 10.2398 0.221406 10.5298L3.57141 13.8798C3.86141 14.1698 4.34141 14.1698 4.63141 13.8798C4.92141 13.5898 4.92141 13.1098 4.63141 12.8198L2.56141 10.7498H7.00141V9.24984H2.56141Z"
          fill="rgb(239,68,68)"/>
</svg>
