<svg
        width="20"
        height="20"
        viewBox="0 0 20 20"
        fill="none"
        xmlns="http://www.w3.org/2000/svg"
>
    <path
            d="M17.5119 3.85L11.5719 0.42C10.6019 -0.14 9.40187 -0.14 8.42188 0.42L2.49187 3.85C1.52187 4.41 0.921875 5.45 0.921875 6.58V13.42C0.921875 14.54 1.52187 15.58 2.49187 16.15L8.43188 19.58C9.40188 20.14 10.6019 20.14 11.5819 19.58L17.5219 16.15C18.4919 15.59 19.0919 14.55 19.0919 13.42V6.58C19.0819 5.45 18.4819 4.42 17.5119 3.85ZM10.0019 5.34C11.2919 5.34 12.3319 6.38 12.3319 7.67C12.3319 8.96 11.2919 10 10.0019 10C8.71187 10 7.67188 8.96 7.67188 7.67C7.67188 6.39 8.71187 5.34 10.0019 5.34ZM12.6819 14.66H7.32187C6.51187 14.66 6.04187 13.76 6.49187 13.09C7.17187 12.08 8.49187 11.4 10.0019 11.4C11.5119 11.4 12.8319 12.08 13.5119 13.09C13.9619 13.75 13.4819 14.66 12.6819 14.66Z"
            fill="#121212"
    />
</svg>