<svg
  width="16"
  height="16"
  viewBox="0 0 16 16"
  fill="none"
  xmlns="http://www.w3.org/2000/svg"
>
  <path
    fill-rule="evenodd"
    clip-rule="evenodd"
    d="M4.27781 0.0910645C4.8348 0.0910645 5.28633 0.542597 5.28633 1.09959V1.78808H10.7135V1.09959C10.7135 0.542597 11.165 0.0910645 11.722 0.0910645C12.279 0.0910645 12.7306 0.542597 12.7306 1.09959V1.98093C14.3376 2.49998 15.5 4.00828 15.5 5.78808V11.6567C15.5 13.8658 13.7091 15.6567 11.5 15.6567H4.5C2.29086 15.6567 0.5 13.8658 0.5 11.6567V5.78807C0.5 4.00834 1.66232 2.50008 3.26928 1.98098V1.09959C3.26928 0.542597 3.72081 0.0910645 4.27781 0.0910645ZM3.43701 5.7871C3.43701 5.2301 3.88854 4.77857 4.44553 4.77857H11.5541C12.1111 4.77857 12.5627 5.2301 12.5627 5.7871C12.5627 6.34409 12.1111 6.79562 11.5541 6.79562H4.44553C3.88854 6.79562 3.43701 6.34409 3.43701 5.7871ZM5.26329 8.62201C5.26329 9.04142 4.92329 9.38142 4.50389 9.38142C4.08448 9.38142 3.74448 9.04142 3.74448 8.62201C3.74448 8.20261 4.08448 7.86261 4.50389 7.86261C4.92329 7.86261 5.26329 8.20261 5.26329 8.62201ZM8.75905 8.62204C8.75905 9.04145 8.41906 9.38144 7.99965 9.38144C7.58024 9.38144 7.24024 9.04145 7.24024 8.62204C7.24024 8.20263 7.58024 7.86264 7.99965 7.86264C8.41906 7.86264 8.75905 8.20263 8.75905 8.62204ZM11.4957 9.38144C11.9152 9.38144 12.2552 9.04145 12.2552 8.62204C12.2552 8.20263 11.9152 7.86264 11.4957 7.86264C11.0763 7.86264 10.7363 8.20263 10.7363 8.62204C10.7363 9.04145 11.0763 9.38144 11.4957 9.38144ZM4.50406 12.3981C4.92347 12.3981 5.26347 12.0581 5.26347 11.6387C5.26347 11.2193 4.92347 10.8793 4.50406 10.8793C4.08466 10.8793 3.74466 11.2193 3.74466 11.6387C3.74466 12.0581 4.08466 12.3981 4.50406 12.3981ZM7.99982 12.4002C8.41923 12.4002 8.75923 12.0602 8.75923 11.6408C8.75923 11.2214 8.41923 10.8814 7.99982 10.8814C7.58042 10.8814 7.24042 11.2214 7.24042 11.6408C7.24042 12.0602 7.58042 12.4002 7.99982 12.4002ZM12.2553 11.6408C12.2553 12.0602 11.9153 12.4002 11.4959 12.4002C11.0765 12.4002 10.7365 12.0602 10.7365 11.6408C10.7365 11.2214 11.0765 10.8814 11.4959 10.8814C11.9153 10.8814 12.2553 11.2214 12.2553 11.6408Z"
    fill="#A6A6A6"
  />
</svg>
