<svg
  width="16"
  height="16"
  viewBox="0 0 16 16"
  fill="none"
  xmlns="http://www.w3.org/2000/svg"
>
  <path
    fill-rule="evenodd"
    clip-rule="evenodd"
    d="M8 15.5C12.1421 15.5 15.5 12.1421 15.5 8C15.5 3.85786 12.1421 0.5 8 0.5C3.85786 0.5 0.5 3.85786 0.5 8C0.5 12.1421 3.85786 15.5 8 15.5ZM8.75025 4.848C8.75025 4.43365 8.41435 4.09775 8 4.09775C7.58564 4.09775 7.24974 4.43365 7.24974 4.848V7.8534C7.24974 8.38817 7.49418 8.89362 7.91338 9.22566L10.2873 11.106C10.6121 11.3633 11.084 11.3086 11.3413 10.9838C11.5985 10.659 11.5438 10.1871 11.219 9.92981L8.84506 8.04944C8.78517 8.002 8.75025 7.9298 8.75025 7.8534V4.848Z"
    fill="#A6A6A6"
  />
</svg>
