<svg width="23" height="23" viewBox="0 0 23 23" fill="none" xmlns="http://www.w3.org/2000/svg">
    <path d="M10 2H8C3 2 1 4 1 9V15C1 20 3 22 8 22H14C19 22 21 20 21 15V13" stroke="#FFFFFF" stroke-width="1.5" stroke-linecap="round" stroke-linejoin="round" />
    <path d="M15.04 3.02001L7.16 10.9C6.86 11.2 6.56 11.79 6.5 12.22L6.07 15.23C5.91 16.32 6.68 17.08 7.77 16.93L10.78 16.5C11.2 16.44 11.79 16.14 12.1 15.84L19.98 7.96001C21.34 6.60001 21.98 5.02001 19.98 3.02001C17.98 1.02001 16.4 1.66001 15.04 3.02001Z" stroke="#FFFFFF" stroke-width="1.5" stroke-miterlimit="10" stroke-linecap="round" stroke-linejoin="round" />
    <path d="M13.91 4.1499C14.58 6.5399 16.45 8.4099 18.85 9.0899" stroke="#FFFFFF" stroke-width="1.5" stroke-miterlimit="10" stroke-linecap="round" stroke-linejoin="round" />
</svg>