<svg
  width="20"
  height="20"
  viewBox="0 0 20 20"
  fill="none"
  xmlns="http://www.w3.org/2000/svg"
>
  <path
    d="M19.0582 9.82156L18.8982 9.60156C18.6182 9.26156 18.2882 8.99156 17.9082 8.79156C17.3982 8.50156 16.8182 8.35156 16.2182 8.35156H3.76824C3.16824 8.35156 2.59824 8.50156 2.07824 8.79156C1.68824 9.00156 1.33824 9.29156 1.04824 9.65156C0.478244 10.3816 0.208244 11.2816 0.298244 12.1816L0.668244 16.8516C0.798244 18.2616 0.968244 20.0016 4.13824 20.0016H15.8582C19.0282 20.0016 19.1882 18.2616 19.3282 16.8416L19.6982 12.1916C19.7882 11.3516 19.5682 10.5116 19.0582 9.82156ZM12.3882 15.3416H7.59824C7.20824 15.3416 6.89824 15.0216 6.89824 14.6416C6.89824 14.2616 7.20824 13.9416 7.59824 13.9416H12.3882C12.7782 13.9416 13.0882 14.2616 13.0882 14.6416C13.0882 15.0316 12.7782 15.3416 12.3882 15.3416Z"
    fill="#A6A6A6"
  />
  <path
    d="M18.56 6.59643C18.5976 6.97928 18.1823 7.23561 17.8175 7.11348C17.3127 6.94449 16.7814 6.86 16.2289 6.86H3.76891C3.21206 6.86 2.66381 6.95012 2.15225 7.12194C1.79185 7.24298 1.37891 6.99507 1.37891 6.61489V4.66C1.37891 1.09 2.46891 0 6.03891 0H7.21891C8.64891 0 9.09891 0.46 9.67891 1.21L10.8789 2.81C11.1289 3.15 11.1389 3.17 11.5789 3.17H13.9589C17.0846 3.17 18.3059 4.00724 18.56 6.59643Z"
    fill="#A6A6A6"
  />
</svg>
