<svg
  width="16"
  height="14"
  viewBox="0 0 16 14"
  fill="none"
  xmlns="http://www.w3.org/2000/svg"
>
  <path
    d="M6.50223 6.64265C8.33567 6.64265 9.82197 5.15636 9.82197 3.32291C9.82197 1.48947 8.33567 0.00317383 6.50223 0.00317383C4.66879 0.00317383 3.18249 1.48947 3.18249 3.32291C3.18249 5.15636 4.66879 6.64265 6.50223 6.64265Z"
    fill="#A6A6A6"
  />
  <path
    d="M6.50206 13.997C3.18721 13.997 0.5 13.1736 0.5 11.4692C0.5 9.76478 3.18721 7.82481 6.50206 7.82481C9.8169 7.82481 12.5044 9.76478 12.5044 11.4692C12.5044 13.1736 9.8169 13.997 6.50206 13.997Z"
    fill="#A6A6A6"
  />
  <path
    d="M11.0012 5.99316C10.976 5.99316 10.9509 5.99279 10.9259 5.99204C10.538 5.98051 10.412 5.52323 10.5998 5.18364C10.9047 4.63209 11.0783 3.99778 11.0783 3.32291C11.0783 2.72164 10.9405 2.15255 10.6948 1.64551C10.5604 1.36822 10.6931 1.01672 11.0012 1.01672V1.01672C12.3754 1.01672 13.4895 2.13073 13.4895 3.50494C13.4895 4.87915 12.3754 5.99316 11.0012 5.99316Z"
    fill="#A6A6A6"
  />
  <path
    d="M15.5 9.61075C15.5 10.1476 15.1442 10.5679 14.5473 10.8747C14.2229 11.0414 13.8556 10.7802 13.7201 10.4415C13.3214 9.44491 12.2001 8.46616 10.6779 7.84503C10.1553 7.63178 10.14 6.91252 10.7038 6.88616C10.8021 6.88156 10.9012 6.87921 11.0011 6.87921C13.4856 6.87921 15.5 8.33327 15.5 9.61075Z"
    fill="#A6A6A6"
  />
</svg>
