<svg width="16" height="16" viewBox="0 0 16 16" fill="none" xmlns="http://www.w3.org/2000/svg">
    <path fill-rule="evenodd" clip-rule="evenodd" d="M4.45424 0.5C2.27037 0.5 0.5 2.27037 0.5 4.45424V11.5458C0.5 13.7296 2.27037 15.5 4.45424 15.5H11.5458C13.7296 15.5 15.5 13.7296 15.5 11.5458V4.45424C15.5 2.27037 13.7296 0.5 11.5458 0.5H4.45424ZM8.74144 4.76653C8.74144 4.35706 8.4095 4.02511 8.00002 4.02511C7.59055 4.02511 7.2586 4.35706 7.2586 4.76653V11.2335C7.2586 11.6429 7.59055 11.9749 8.00002 11.9749C8.4095 11.9749 8.74144 11.6429 8.74144 11.2335V4.76653ZM5.03434 8.45015C5.44382 8.45015 5.77576 8.78209 5.77576 9.19157L5.77576 11.2335C5.77576 11.6429 5.44382 11.9749 5.03434 11.9749C4.62487 11.9749 4.29292 11.6429 4.29292 11.2335L4.29292 9.19157C4.29292 8.78209 4.62487 8.45015 5.03434 8.45015ZM11.7071 7.14967C11.7071 6.7402 11.3752 6.40825 10.9657 6.40825C10.5562 6.40825 10.2243 6.7402 10.2243 7.14967V11.2335C10.2243 11.6429 10.5562 11.9749 10.9657 11.9749C11.3752 11.9749 11.7071 11.6429 11.7071 11.2335V7.14967Z" fill="#A6A6A6"/>
</svg>
