<svg
  width="20"
  height="20"
  viewBox="0 0 20 20"
  fill="none"
  xmlns="http://www.w3.org/2000/svg"
>
  <path
    fillRule="evenodd"
    clipRule="evenodd"
    d="M8.66465 0.045166C3.89415 0.045166 0.045105 3.95109 0.045105 8.74669C0.045105 13.5423 3.89415 17.4482 8.66465 17.4482C13.4352 17.4482 17.2842 13.5423 17.2842 8.74669C17.2842 6.44234 16.3786 4.23023 14.7634 2.59758C13.1477 0.964561 10.9542 0.045166 8.66465 0.045166ZM2.0451 8.74669C2.0451 5.03543 5.01884 2.04517 8.66465 2.04517C10.4168 2.04517 12.0994 2.74859 13.3416 4.0042C14.5842 5.26018 15.2842 6.96591 15.2842 8.74669C15.2842 12.458 12.3105 15.4482 8.66465 15.4482C5.01884 15.4482 2.0451 12.458 2.0451 8.74669ZM17.0791 15.6767C16.6886 15.2862 16.0555 15.2862 15.6649 15.6767C15.2744 16.0672 15.2744 16.7004 15.6649 17.0909L18.2483 19.6743C18.6388 20.0648 19.272 20.0648 19.6625 19.6743C20.053 19.2838 20.053 18.6506 19.6625 18.2601L17.0791 15.6767Z"
    fill="#B8B8B8"
  />
</svg>
