<svg
  width="21"
  height="21"
  viewBox="0 0 21 21"
  fill="none"
  xmlns="http://www.w3.org/2000/svg"
>
  <path
    d="M16.533 5.77C16.463 5.76 16.393 5.76 16.323 5.77C14.773 5.72 13.543 4.45 13.543 2.89C13.543 1.3 14.833 0 16.433 0C18.023 0 19.323 1.29 19.323 2.89C19.313 4.45 18.083 5.72 16.533 5.77Z"
    fill="#A6A6A6"
  />
  <path
    d="M19.7916 12.7004C18.6716 13.4504 17.1016 13.7304 15.6516 13.5404C16.0316 12.7204 16.2316 11.8104 16.2416 10.8504C16.2416 9.8504 16.0216 8.9004 15.6016 8.0704C17.0816 7.8704 18.6516 8.1504 19.7816 8.9004C21.3616 9.9404 21.3616 11.6504 19.7916 12.7004Z"
    fill="#A6A6A6"
  />
  <path
    d="M5.44016 5.77C5.51016 5.76 5.58016 5.76 5.65016 5.77C7.20016 5.72 8.43016 4.45 8.43016 2.89C8.43016 1.29 7.14016 0 5.54016 0C3.95016 0 2.66016 1.29 2.66016 2.89C2.66016 4.45 3.89016 5.72 5.44016 5.77Z"
    fill="#A6A6A6"
  />
  <path
    d="M5.55109 10.8506C5.55109 11.8206 5.76109 12.7406 6.14109 13.5706C4.73109 13.7206 3.26109 13.4206 2.18109 12.7106C0.601094 11.6606 0.601094 9.95059 2.18109 8.90059C3.25109 8.18059 4.76109 7.89059 6.18109 8.05059C5.77109 8.89059 5.55109 9.84059 5.55109 10.8506Z"
    fill="#A6A6A6"
  />
  <path
    d="M11.1208 13.87C11.0408 13.86 10.9508 13.86 10.8608 13.87C9.02078 13.81 7.55078 12.3 7.55078 10.44C7.56078 8.54 9.09078 7 11.0008 7C12.9008 7 14.4408 8.54 14.4408 10.44C14.4308 12.3 12.9708 13.81 11.1208 13.87Z"
    fill="#A6A6A6"
  />
  <path
    d="M7.87078 15.9406C6.36078 16.9506 6.36078 18.6106 7.87078 19.6106C9.59078 20.7606 12.4108 20.7606 14.1308 19.6106C15.6408 18.6006 15.6408 16.9406 14.1308 15.9406C12.4208 14.7906 9.60078 14.7906 7.87078 15.9406Z"
    fill="#A6A6A6"
  />
</svg>
