<svg
  width="20"
  height="14"
  viewBox="0 0 20 14"
  fill="none"
  xmlns="http://www.w3.org/2000/svg"
>
  <path
    d="M7.57 13.6375C7.38 13.6375 7.19 13.5675 7.04 13.4175L0.970002 7.3475C0.680002 7.0575 0.680002 6.5775 0.970002 6.2875L7.04 0.2175C7.33 -0.0725 7.81 -0.0725 8.1 0.2175C8.39 0.5075 8.39 0.9875 8.1 1.2775L2.56 6.8175L8.1 12.3575C8.39 12.6475 8.39 13.1275 8.1 13.4175C7.96 13.5675 7.76 13.6375 7.57 13.6375Z"
    fill="#292D32"
  />
  <path
    d="M18.5 7.5675H1.66998C1.25998 7.5675 0.919983 7.2275 0.919983 6.8175C0.919983 6.4075 1.25998 6.0675 1.66998 6.0675H18.5C18.91 6.0675 19.25 6.4075 19.25 6.8175C19.25 7.2275 18.91 7.5675 18.5 7.5675Z"
    fill="#292D32"
  />
</svg>
