<svg xmlns="http://www.w3.org/2000/svg" xmlns:xlink="http://www.w3.org/1999/xlink" viewBox="0 0 50 50" fill="#7A7A7A">
  <path d="M19.984375 0.984375C19.433594 0.996094 18.992188 1.449219 19 2L19 8C18.996094 8.359375 19.183594 8.695313 19.496094 8.878906C19.808594 9.058594 20.191406 9.058594 20.503906 8.878906C20.816406 8.695313 21.003906 8.359375 21 8L21 2C21.003906 1.730469 20.898438 1.46875 20.707031 1.277344C20.515625 1.085938 20.253906 0.980469 19.984375 0.984375 Z M 10.988281 3.992188C10.582031 3.992188 10.21875 4.238281 10.0625 4.613281C9.910156 4.992188 10 5.421875 10.292969 5.707031L14.292969 9.707031C14.542969 9.96875 14.917969 10.074219 15.265625 9.980469C15.617188 9.890625 15.890625 9.617188 15.980469 9.265625C16.074219 8.917969 15.96875 8.542969 15.707031 8.292969L11.707031 4.292969C11.519531 4.097656 11.261719 3.992188 10.988281 3.992188 Z M 28.980469 3.992188C28.71875 3.996094 28.472656 4.105469 28.292969 4.292969L24.292969 8.292969C24.03125 8.542969 23.925781 8.917969 24.019531 9.265625C24.109375 9.617188 24.382813 9.890625 24.734375 9.980469C25.082031 10.074219 25.457031 9.96875 25.707031 9.707031L29.707031 5.707031C30.003906 5.417969 30.089844 4.980469 29.929688 4.601563C29.769531 4.21875 29.394531 3.976563 28.980469 3.992188 Z M 39.171875 6C38.449219 6 37.722656 6.277344 37.171875 6.828125L18 26C18 26 15.074219 20.496094 13.609375 19.027344C11.050781 16.46875 6.101563 15.21875 4.796875 16.523438L3 18.316406L8.65625 23.972656L13 37L20.851563 44.851563C23.695313 47.695313 28.304688 47.695313 31.148438 44.851563L42.171875 33.828125C43.277344 32.722656 43.277344 30.933594 42.171875 29.828125C41.066406 28.722656 39.277344 28.722656 38.171875 29.828125L39.171875 28.828125C40.277344 27.722656 40.277344 25.933594 39.171875 24.828125C38.066406 23.722656 36.277344 23.722656 35.171875 24.828125L36.171875 23.828125C37.277344 22.722656 37.277344 20.933594 36.171875 19.828125C35.066406 18.722656 33.277344 18.722656 32.171875 19.828125L41.171875 10.828125C42.277344 9.722656 42.277344 7.933594 41.171875 6.828125C40.621094 6.277344 39.894531 6 39.171875 6Z" fill="#7A7A7A" />
</svg>