<svg width="20" height="18" viewBox="0 0 20 18" fill="none" xmlns="http://www.w3.org/2000/svg">
    <path fill-rule="evenodd" clip-rule="evenodd" d="M3.4655 0.108276C1.55156 0.108276 0 1.65984 0 3.57378V14.4263C0 16.3402 1.55156 17.8918 3.4655 17.8918H16.5345C18.4484 17.8918 20 16.3402 20 14.4263V3.57377C20 1.65983 18.4484 0.108276 16.5345 0.108276H3.4655ZM2.95401 5.33616C3.15034 4.83617 3.67235 4.60862 4.11996 4.82792L9.56428 7.4952C9.83909 7.62983 10.1607 7.62983 10.4355 7.4952L15.8798 4.82792C16.3274 4.60862 16.8495 4.83617 17.0458 5.33616C17.2421 5.83615 17.0384 6.41924 16.5908 6.63854L10.358 9.69209L10.3443 9.69871C10.2319 9.75181 10.115 9.77696 9.9999 9.77689C9.88482 9.77696 9.76792 9.75181 9.65548 9.69871L9.64173 9.69207L3.40902 6.63854C2.9614 6.41924 2.75769 5.83615 2.95401 5.33616Z" fill="#5C68FF"/>
</svg>
