<svg width="22" height="18" viewBox="0 0 22 18" fill="none" xmlns="http://www.w3.org/2000/svg">
    <path fill-rule="evenodd" clip-rule="evenodd" d="M21.4685 1.58568C21.792 1.32692 21.8444 0.854953 21.5857 0.531506C21.3269 0.20806 20.855 0.155619 20.5315 0.414376L17.2062 3.07464C17.0246 2.91151 16.8385 2.75148 16.6483 2.59574C15.0768 1.30902 13.141 0.250028 11 0.250028C8.85908 0.250028 6.92328 1.30902 5.35176 2.59574C3.77166 3.88949 2.47965 5.47868 1.61144 6.68804L1.53984 6.78762C1.01718 7.51386 0.586942 8.11168 0.586942 9.00003C0.586942 9.88837 1.01718 10.4862 1.53984 11.2124L1.61144 11.312C2.1561 12.0707 2.86754 12.9788 3.71227 13.8698L0.531506 16.4144C0.20806 16.6731 0.155619 17.1451 0.414376 17.4685C0.673133 17.792 1.1451 17.8444 1.46855 17.5857L21.4685 1.58568ZM7.66178 10.7102L8.87453 9.73996C8.79386 9.50823 8.75003 9.25925 8.75003 9.00003C8.75003 7.75739 9.75739 6.75003 11 6.75003C11.4362 6.75003 11.8434 6.87415 12.1882 7.089L13.4007 6.11904C12.7503 5.57647 11.9133 5.25003 11 5.25003C8.92896 5.25003 7.25003 6.92896 7.25003 9.00003C7.25003 9.61605 7.39857 10.1974 7.66178 10.7102Z" fill="#B8B8B8"/>
    <path d="M19.6952 5.76484L14.6673 9.78716C14.3056 11.4803 12.8011 12.75 11 12.75L10.9639 12.7499L6.54805 16.2825C7.86737 17.1396 9.37457 17.75 11 17.75C13.141 17.75 15.0768 16.691 16.6483 15.4043C18.2284 14.1106 19.5204 12.5214 20.3886 11.312L20.4602 11.2124C20.9829 10.4862 21.4131 9.88837 21.4131 9.00003C21.4131 8.11168 20.9829 7.51386 20.4602 6.78762L20.3886 6.68804C20.1811 6.39894 19.9493 6.08813 19.6952 5.76484Z" fill="#B8B8B8"/>
</svg>
