<svg width="20" height="22" viewBox="0 0 20 22" fill="none" xmlns="http://www.w3.org/2000/svg">
    <path fill-rule="evenodd" clip-rule="evenodd" d="M8.22357 0.751694C5.84449 0.751694 3.91587 2.68031 3.91587 5.05939V6.89705H3.4593C1.54824 6.89705 -0.000976562 8.44627 -0.000976562 10.3573V18.0352C-0.000976562 19.9462 1.54825 21.4955 3.45931 21.4955H16.5406C18.4517 21.4955 20.0009 19.9462 20.0009 18.0352V10.3573C20.0009 8.44627 18.4516 6.89705 16.5406 6.89705H16.0841V5.05939C16.0841 2.68032 14.1554 0.751694 11.7764 0.751694H8.22357ZM14.6011 6.89705V5.05939C14.6011 3.49934 13.3364 2.23467 11.7764 2.23467H8.22357C6.66352 2.23467 5.39885 3.49934 5.39885 5.05939V6.89705H14.6011ZM10 12.5651C10.4095 12.5651 10.7415 12.897 10.7415 13.3065V15.0869C10.7415 15.4964 10.4095 15.8284 10 15.8284C9.59049 15.8284 9.25851 15.4964 9.25851 15.0869V13.3065C9.25851 12.897 9.59049 12.5651 10 12.5651Z" fill="#5C68FF"/>
</svg>
