<svg
  width="16"
  height="20"
  viewBox="0 0 16 20"
  fill="none"
  xmlns="http://www.w3.org/2000/svg"
>
  <path
    d="M8 0C5.38 0 3.25 2.13 3.25 4.75C3.25 7.32 5.26 9.4 7.88 9.49C7.96 9.48 8.04 9.48 8.1 9.49C8.12 9.49 8.13 9.49 8.15 9.49C8.16 9.49 8.16 9.49 8.17 9.49C10.73 9.4 12.74 7.32 12.75 4.75C12.75 2.13 10.62 0 8 0Z"
    fill="#5C68FF"
  />
  <path
    d="M13.0809 12.1489C10.2909 10.2889 5.74094 10.2889 2.93094 12.1489C1.66094 12.9989 0.960938 14.1489 0.960938 15.3789C0.960938 16.6089 1.66094 17.7489 2.92094 18.5889C4.32094 19.5289 6.16094 19.9989 8.00094 19.9989C9.84094 19.9989 11.6809 19.5289 13.0809 18.5889C14.3409 17.7389 15.0409 16.5989 15.0409 15.3589C15.0309 14.1289 14.3409 12.9889 13.0809 12.1489ZM10.0009 16.1289H8.75094V17.3789C8.75094 17.7889 8.41094 18.1289 8.00094 18.1289C7.59094 18.1289 7.25094 17.7889 7.25094 17.3789V16.1289H6.00094C5.59094 16.1289 5.25094 15.7889 5.25094 15.3789C5.25094 14.9689 5.59094 14.6289 6.00094 14.6289H7.25094V13.3789C7.25094 12.9689 7.59094 12.6289 8.00094 12.6289C8.41094 12.6289 8.75094 12.9689 8.75094 13.3789V14.6289H10.0009C10.4109 14.6289 10.7509 14.9689 10.7509 15.3789C10.7509 15.7889 10.4109 16.1289 10.0009 16.1289Z"
    fill="#5C68FF"
  />
</svg>
