<svg
  width="32"
  height="24"
  viewBox="0 0 32 24"
  fill="none"
  xmlns="http://www.w3.org/2000/svg"
>
  <path
    d="M20.206 2.71526e-06C20.5346 2.71526e-06 20.8633 0.1211 21.1228 0.380595L31.6237 10.8815C32.1254 11.3832 32.1254 12.2136 31.6237 12.7153L21.1228 23.2162C20.6211 23.7178 19.7908 23.7178 19.2891 23.2162C18.7874 22.7145 18.7874 21.8841 19.2891 21.3824L28.8731 11.7984L19.2891 2.21436C18.7874 1.71267 18.7874 0.882285 19.2891 0.380595C19.5313 0.1211 19.8773 2.71526e-06 20.206 2.71526e-06Z"
    fill="white"
  />
  <path
    d="M1.29739 10.5009L30.4127 10.5009C31.122 10.5009 31.7102 11.0891 31.7102 11.7984C31.7102 12.5077 31.122 13.0958 30.4127 13.0958L1.29739 13.0958C0.588106 13.0958 -8.21196e-05 12.5077 -8.21196e-05 11.7984C-8.21196e-05 11.0891 0.588106 10.5009 1.29739 10.5009Z"
    fill="white"
  />
</svg>
