<svg
  width="25"
  height="30"
  viewBox="0 0 25 30"
  fill="none"
  xmlns="http://www.w3.org/2000/svg"
>
  <path
    fill-rule="evenodd"
    clip-rule="evenodd"
    d="M17.4392 2.88385L22.8911 2.88385C23.5191 2.88385 24.0283 3.393 24.0283 4.02107C24.0283 4.64913 23.5191 5.15828 22.8911 5.15828L1.64021 5.15828C1.01214 5.15828 0.502991 4.64913 0.502991 4.02107C0.502991 3.393 1.01214 2.88385 1.64021 2.88385L7.09186 2.88385C7.58236 1.21689 9.12392 0 10.9497 0H13.5814C15.4072 0 16.9487 1.21689 17.4392 2.88385ZM18.1212 29.3602C19.7411 29.3602 21.1172 28.1747 21.3568 26.5725L23.9064 9.52564C24.0839 8.33909 23.1648 7.27232 21.9651 7.27232H13.4769H11.5056H3.01738C1.81763 7.27232 0.898554 8.33909 1.07602 9.52564L3.62568 26.5725C3.8653 28.1747 5.24132 29.3602 6.86127 29.3602H11.5056H13.4769H18.1212Z"
    fill="#EB4335"
  />
</svg>
