<svg
  width="20"
  height="21"
  viewBox="0 0 20 21"
  fill="none"
  xmlns="http://www.w3.org/2000/svg"
>
  <path
    d="M19.09 5.21C18.24 4.27 16.82 3.8 14.76 3.8H14.52V3.76C14.52 2.08 14.52 0 10.76 0H9.24004C5.48004 0 5.48004 2.09 5.48004 3.76V3.81H5.24004C3.17004 3.81 1.76004 4.28 0.910038 5.22C-0.0799625 6.32 -0.0499626 7.8 0.0500374 8.81L0.0600374 8.88L0.137493 9.69328C0.151757 9.84306 0.232421 9.97834 0.358313 10.0607C0.598117 10.2177 0.999462 10.4763 1.24004 10.61C1.38004 10.7 1.53004 10.78 1.68004 10.86C3.39004 11.8 5.27004 12.43 7.18004 12.74C7.27004 13.68 7.68004 14.78 9.87004 14.78C12.06 14.78 12.49 13.69 12.56 12.72C14.6 12.39 16.57 11.68 18.35 10.64C18.41 10.61 18.45 10.58 18.5 10.55C18.8968 10.3258 19.3083 10.0495 19.6835 9.77885C19.7965 9.69731 19.8688 9.57125 19.8842 9.43274L19.9 9.29L19.95 8.82C19.96 8.76 19.96 8.71 19.97 8.64C20.05 7.63 20.03 6.25 19.09 5.21ZM11.09 12.06C11.09 13.12 11.09 13.28 9.86004 13.28C8.63004 13.28 8.63004 13.09 8.63004 12.07V10.81H11.09V12.06ZM6.91004 3.8V3.76C6.91004 2.06 6.91004 1.43 9.24004 1.43H10.76C13.09 1.43 13.09 2.07 13.09 3.76V3.81H6.91004V3.8Z"
    fill="#A6A6A6"
  />
  <path
    d="M18.8736 11.9641C19.2272 11.7959 19.6344 12.0761 19.599 12.4661L19.2401 16.42C19.0301 18.42 18.2101 20.4599 13.8101 20.4599H6.19009C1.79009 20.4599 0.970088 18.42 0.760088 16.43L0.419376 12.6821C0.384334 12.2967 0.78229 12.0167 1.13493 12.1762C2.27434 12.6917 4.37748 13.6063 5.67666 13.9466C5.84097 13.9896 5.97386 14.1072 6.0458 14.2611C6.65277 15.5592 7.9692 16.2499 9.87009 16.2499C11.7522 16.2499 13.0852 15.5326 13.6942 14.2313C13.7663 14.0774 13.8993 13.9598 14.0637 13.9165C15.4433 13.5535 17.6819 12.5312 18.8736 11.9641Z"
    fill="#A6A6A6"
  />
</svg>
