<svg
  width="20"
  height="20"
  viewBox="0 0 20 20"
  fill="none"
  xmlns="http://www.w3.org/2000/svg"
>
  <path
    d="M19.0169 5.99175C19.4148 6.55833 18.9405 7.25 18.2482 7.25H1C0.447716 7.25 0 6.80228 0 6.25V4.42C0 1.98 1.98 0 4.42 0H6.74C8.37 0 8.88 0.53 9.53 1.4L10.93 3.26C11.24 3.67 11.28 3.72 11.86 3.72H14.65C16.4546 3.72 18.0516 4.61709 19.0169 5.99175Z"
    fill="#FFF"
  />
  <path
    d="M18.9834 8.75001C19.5343 8.75001 19.9815 9.19566 19.9834 9.74662L20 14.6503C20 17.6003 17.6 20.0003 14.65 20.0003H5.35C2.4 20.0003 0 17.6003 0 14.6503V9.75026C0 9.19798 0.447707 8.75026 0.999987 8.75026L18.9834 8.75001Z"
    fill="#FFF"
  />
</svg>
