<svg
  width="29"
  height="29"
  viewBox="0 0 29 29"
  fill="none"
  xmlns="http://www.w3.org/2000/svg"
>
  <path
    d="M27.4264 9.04602C27.778 9.64238 27.3003 10.3312 26.608 10.3312H1C0.447716 10.3312 0 9.88353 0 9.33125V6.2985C0 2.8215 2.8215 0 6.2985 0H9.6045C11.9272 0 12.654 0.75525 13.5803 1.995L15.5753 4.6455C16.017 5.22975 16.074 5.301 16.9005 5.301H20.8763C23.6638 5.301 26.1039 6.80318 27.4264 9.04602Z"
    fill="#14CC8A"
  />
  <path
    d="M28.4749 13.4649C28.473 12.9139 28.0258 12.4683 27.4749 12.4683L0.999982 12.4687C0.447704 12.4688 0 12.9165 0 13.4687V20.8763C0 25.08 3.42 28.5 7.62375 28.5H20.8762C25.08 28.5 28.5 25.08 28.5 20.8763L28.4749 13.4649ZM17.8125 21.0188H15.4043V23.5125C15.4043 24.0968 14.9198 24.5813 14.3355 24.5813C13.737 24.5813 13.2668 24.0968 13.2668 23.5125V21.0188H10.6875C10.1032 21.0188 9.61875 20.5343 9.61875 19.95C9.61875 19.3658 10.1032 18.8813 10.6875 18.8813H13.2668V16.3875C13.2668 15.8033 13.737 15.3188 14.3355 15.3188C14.9198 15.3188 15.4043 15.8033 15.4043 16.3875V18.8813H17.8125C18.3967 18.8813 18.8812 19.3658 18.8812 19.95C18.8812 20.5343 18.3967 21.0188 17.8125 21.0188Z"
    fill="#14CC8A"
  />
</svg>
