<svg
  width="27"
  height="27"
  viewBox="0 0 27 27"
  fill="none"
  xmlns="http://www.w3.org/2000/svg"
>
  <path
    d="M19.9823 0H16.4881C12.1876 0 9.49976 2.68782 9.49976 6.98833V12.4312H17.8992C18.4502 12.4312 18.9071 12.8881 18.9071 13.4391C18.9071 13.9901 18.4502 14.447 17.8992 14.447H9.49976V19.8899C9.49976 24.1904 12.1876 26.8782 16.4881 26.8782H19.9688C24.2693 26.8782 26.9572 24.1904 26.9572 19.8899V6.98833C26.9706 2.68782 24.2828 0 19.9823 0Z"
    fill="#A6A6A6"
  />
  <path
    d="M3.53281 12.4311L6.31471 9.64922C6.5163 9.44763 6.61037 9.19229 6.61037 8.93695C6.61037 8.6816 6.5163 8.41282 6.31471 8.22467C5.92498 7.83494 5.2799 7.83494 4.89016 8.22467L0.388065 12.7268C-0.00166933 13.1165 -0.00166933 13.7616 0.388065 14.1513L4.89016 18.6534C5.2799 19.0432 5.92498 19.0432 6.31471 18.6534C6.70444 18.2637 6.70444 17.6186 6.31471 17.2289L3.53281 14.447H9.49978V12.4311H3.53281Z"
    fill="#A6A6A6"
  />
</svg>
