<svg width="6"
        height="20"
        viewBox="0 0 6 20"
        fill="none"
        xmlns="http://www.w3.org/2000/svg"
>
    <path d="M2.99999 5.20002C2.36347 5.20002 1.75302 4.94717 1.30294 4.49708C0.852849 4.04699 0.599993 3.43654 0.599993 2.80002C0.599993 2.1635 0.852849 1.55306 1.30294 1.10297C1.75302 0.652881 2.36347 0.400024 2.99999 0.400024C3.63651 0.400024 4.24696 0.652881 4.69705 1.10297C5.14714 1.55306 5.39999 2.1635 5.39999 2.80002C5.39999 3.43654 5.14714 4.04699 4.69705 4.49708C4.24696 4.94717 3.63651 5.20002 2.99999 5.20002ZM2.99999 12.4C2.36347 12.4 1.75302 12.1472 1.30294 11.6971C0.852849 11.247 0.599992 10.6365 0.599992 10C0.599992 9.3635 0.852849 8.75306 1.30294 8.30297C1.75302 7.85288 2.36347 7.60002 2.99999 7.60002C3.63651 7.60002 4.24696 7.85288 4.69705 8.30297C5.14714 8.75306 5.39999 9.3635 5.39999 10C5.39999 10.6365 5.14714 11.247 4.69705 11.6971C4.24696 12.1472 3.63651 12.4 2.99999 12.4ZM0.599992 17.2C0.599992 17.8365 0.852849 18.447 1.30294 18.8971C1.75302 19.3472 2.36347 19.6 2.99999 19.6C3.63651 19.6 4.24696 19.3472 4.69705 18.8971C5.14714 18.447 5.39999 17.8365 5.39999 17.2C5.39999 16.5635 5.14714 15.9531 4.69705 15.503C4.24696 15.0529 3.63651 14.8 2.99999 14.8C2.36347 14.8 1.75302 15.0529 1.30294 15.503C0.852849 15.9531 0.599992 16.5635 0.599992 17.2Z"
          fill="#A6A6A6"
    />
</svg>