<svg width="18" height="16" viewBox="0 0 18 16" fill="none" xmlns="http://www.w3.org/2000/svg">
    <path fill-rule="evenodd" clip-rule="evenodd"
          d="M12.4692 0.49413C11.9172 -0.0204373 11.0526 0.00988635 10.5381 0.56186C10.0235 1.11383 10.0538 1.97844 10.6058 2.493L13.6246 5.30726C14.1766 5.82183 15.0412 5.7915 15.5558 5.23953C16.0703 4.68755 16.04 3.82295 15.488 3.30838L12.4692 0.49413ZM8.06754 3.21197C8.40667 2.84819 8.9765 2.8282 9.34029 3.16734L13.0406 6.61689C13.4044 6.95603 13.4244 7.52586 13.0853 7.88964L5.98823 15.5026C5.77633 15.7299 5.47989 15.8595 5.16914 15.8607L2.00755 15.8727C1.41317 15.8749 0.919459 15.4147 0.88009 14.8216L0.670687 11.6671C0.650105 11.357 0.758611 11.0522 0.970502 10.8249L8.06754 3.21197ZM10.1451 14.3309C9.77211 14.3309 9.46973 14.6332 9.46973 15.0063C9.46973 15.3793 9.77211 15.6816 10.1451 15.6816H16.4875C16.8605 15.6816 17.1629 15.3793 17.1629 15.0063C17.1629 14.6332 16.8605 14.3309 16.4875 14.3309H10.1451Z"
          fill="#A6A6A6"/>
</svg>
