<svg
  width="30"
  height="28"
  viewBox="0 0 30 28"
  fill="none"
  xmlns="http://www.w3.org/2000/svg"
>
  <path
    d="M11.7484 12.9958C15.3371 12.9958 18.2463 10.0866 18.2463 6.49788C18.2463 2.9092 15.3371 0 11.7484 0C8.15976 0 5.25056 2.9092 5.25056 6.49788C5.25056 10.0866 8.15976 12.9958 11.7484 12.9958Z"
    fill="#5C68FF"
  />
  <path
    d="M11.7481 27.3907C5.25981 27.3907 0 25.779 0 22.4429C-5.28731e-07 19.1069 5.25981 15.3097 11.7481 15.3097C18.2364 15.3096 23.4969 19.1069 23.4969 22.4429C23.4969 25.779 18.2364 27.3907 11.7481 27.3907Z"
    fill="#5C68FF"
  />
  <path
    d="M20.5546 11.7245C20.2434 11.7245 19.9391 11.6953 19.6441 11.6395C19.2628 11.5674 19.142 11.1109 19.3634 10.7922C20.2095 9.57373 20.7055 8.09373 20.7055 6.49788C20.7055 5.16257 20.3582 3.90837 19.7492 2.82062C19.5594 2.48178 19.7239 2.03875 20.1107 2.00381C20.2569 1.9906 20.4049 1.98385 20.5546 1.98385C23.2444 1.98385 25.4249 4.16437 25.4249 6.85417C25.4249 9.54397 23.2444 11.7245 20.5546 11.7245Z"
    fill="#5C68FF"
  />
  <path
    d="M29.3602 18.8054C29.3602 20.0333 28.4093 20.9496 26.8655 21.5641C26.5266 21.699 26.1679 21.4454 26.0852 21.0902C25.4911 18.5398 22.3571 15.9214 18.0914 14.7221C17.5481 14.5693 17.5012 13.8269 18.054 13.7129C18.8466 13.5496 19.6857 13.4588 20.5542 13.4588C25.4174 13.4588 29.3602 16.3049 29.3602 18.8054Z"
    fill="#5C68FF"
  />
</svg>
