<svg
  width="34"
  height="34"
  viewBox="0 0 34 34"
  fill="none"
  xmlns="http://www.w3.org/2000/svg"
>
  <path
    d="M27.6246 12.75C28.9191 12.7501 30.1829 12.3561 31.248 11.6204C32.3131 10.8847 33.129 9.84223 33.5873 8.63158C34.0455 7.42093 34.1243 6.09949 33.8132 4.84297C33.5021 3.58645 32.8158 2.4544 31.8457 1.59737C30.8756 0.740339 29.6675 0.198934 28.3822 0.0451523C27.0969 -0.108629 25.7952 0.1325 24.6502 0.736475C23.5053 1.34045 22.5713 2.27865 21.9726 3.42631C21.3738 4.57397 21.1386 5.87671 21.2983 7.16128L10.8005 12.41C9.89996 11.5417 8.76383 10.9574 7.53363 10.7301C6.30342 10.5028 5.03352 10.6424 3.88212 11.1316C2.73071 11.6209 1.74869 12.438 1.05838 13.4813C0.368078 14.5246 0 15.748 0 16.999C0 18.25 0.368078 19.4733 1.05838 20.5167C1.74869 21.56 2.73071 22.3771 3.88212 22.8663C5.03352 23.3556 6.30342 23.4952 7.53363 23.2679C8.76383 23.0406 9.89996 22.4563 10.8005 21.5879L21.2983 26.8367C21.1124 28.329 21.4599 29.8389 22.2796 31.0997C23.0993 32.3605 24.3383 33.291 25.7776 33.7266C27.217 34.1623 28.764 34.0751 30.1453 33.4805C31.5266 32.8859 32.6532 31.8221 33.3261 30.4772C33.9989 29.1324 34.1746 27.5929 33.8222 26.131C33.4698 24.6691 32.6119 23.3788 31.4001 22.4882C30.1884 21.5976 28.7008 21.164 27.2003 21.2641C25.6998 21.3642 24.283 21.9915 23.2002 23.0351L12.7024 17.7863C12.7667 17.2641 12.7667 16.736 12.7024 16.2138L23.2002 10.965C24.3435 12.07 25.9033 12.75 27.6246 12.75Z"
    fill="white"
  />
</svg>
